<svg preserveAspectRatio="none" width="100%" height="100%" overflow="visible" style="display: block;" viewBox="0 0 90.8833 13.1674" fill="none" xmlns="http://www.w3.org/2000/svg">
<g id="Group">
<path id="Vector" d="M15.1048 1.68116e-07H16.5343L16.6321 13.1674H15.4068L15.3902 9.73957H5.16211L1.24348 13.1674H0L15.1053 1.68116e-07H15.1048ZM15.3844 8.80327L15.3699 0.805685L6.23248 8.80327H15.3839H15.3844Z" fill="var(--fill-0, #009EE2)"/>
<path id="Vector_2" d="M17.4623 0H18.5945V8.466L29.9553 0H31.7186L24.4418 5.45045L31.7186 13.1674H30.2709L23.5695 6.10611L18.5945 9.83346V13.1674H17.4623V0Z" fill="var(--fill-0, #009EE2)"/>
<g id="Group_2">
<g id="Group_3">
<path id="Vector_3" d="M52.1103 0H40.8758V0.955178H52.1103V0Z" fill="var(--fill-0, #F5F5F5)"/>
<path id="Vector_4" d="M52.1103 12.2122H40.8758V13.1674H52.1103V12.2122Z" fill="var(--fill-0, #F5F5F5)"/>
<path id="Vector_5" d="M51.7682 6.125H47.0444V7.04293H51.7682V6.125Z" fill="var(--fill-0, #F5F5F5)"/>
</g>
<path id="Vector_6" d="M32.5374 0H40.4267C44.5106 0 47.5548 2.80941 47.5548 6.59288C47.5548 10.3764 44.5106 13.1674 40.4267 13.1674H32.5374V0ZM40.0186 12.1561C43.7126 12.1561 46.4044 9.8151 46.4044 6.59341C46.4044 3.37171 43.7126 1.01183 40.0186 1.01183H33.6702V12.1561H40.0186Z" fill="var(--fill-0, #009EE2)"/>
</g>
<path id="Vector_7" d="M52.9296 0H54.4886L62.1179 11.9872L69.7472 0H71.3063V13.1674H70.174V1.31134L62.6747 13.1674H61.5794L54.0613 1.31134V13.1674H52.9291V0H52.9296Z" fill="var(--fill-0, #F5F5F5)"/>
<path id="Vector_8" d="M72.1172 0H73.2495V13.1674H72.1172V0Z" fill="var(--fill-0, #F5F5F5)"/>
<path id="Vector_9" d="M74.2008 0H75.6304L90.8833 13.1674H89.658L85.6962 9.73957H75.4682L75.4947 13.1674H74.2507L74.2008 0ZM84.6129 8.80327L75.3933 0.805685L75.4614 8.80327H84.6129Z" fill="var(--fill-0, #F5F5F5)"/>
</g>
</svg>
