<svg preserveAspectRatio="none" width="100%" height="100%" overflow="visible" style="display: block;" viewBox="0 0 64.0143 6.51473" fill="none" xmlns="http://www.w3.org/2000/svg">
<g id="Group">
<path id="Vector" d="M3.05412 0.156839L5.92005 6.35842H5.25672L4.29032 4.31797H1.64273L0.685162 6.35842H4.46431e-07L2.90388 0.156839H3.05412ZM2.97614 1.47447L1.92293 3.71896H4.02416L2.97614 1.47447Z" fill="var(--fill-0, #009EE2)"/>
<path id="Vector_2" d="M7.40682 0.156839H8.02077V3.90045C8.02077 4.34473 8.02909 4.62115 8.04572 4.73078C8.07639 4.97522 8.14761 5.17978 8.25886 5.34396C8.37011 5.50814 8.54166 5.6461 8.77299 5.7573C9.00432 5.8685 9.2367 5.92358 9.47063 5.92358C9.67389 5.92358 9.86884 5.88004 10.0555 5.79297C10.2421 5.70589 10.398 5.58525 10.5233 5.43051C10.6486 5.27578 10.7406 5.08904 10.7988 4.86979C10.8404 4.71242 10.8618 4.38931 10.8618 3.89992V0.156314H11.4757V3.89992C11.4757 4.45383 11.4221 4.90126 11.3151 5.24273C11.208 5.5842 10.9933 5.88161 10.6715 6.13444C10.3497 6.38726 9.96033 6.51368 9.5039 6.51368C9.00797 6.51368 8.58325 6.39408 8.22975 6.15542C7.87573 5.91676 7.6392 5.60046 7.51963 5.20706C7.44425 4.96525 7.40682 4.52989 7.40682 3.89992V0.156314V0.156839Z" fill="var(--fill-0, #009EE2)"/>
<path id="Vector_3" d="M12.8923 0.764248V0.157361H16.2599V0.764248H14.8895V6.35842H14.2626V0.764248H12.8923Z" fill="var(--fill-0, #009EE2)"/>
<path id="Vector_4" d="M20.5855 0.00105009C21.5166 0.00105009 22.2953 0.314721 22.9223 0.941016C23.5492 1.56784 23.8632 2.33943 23.8632 3.25527C23.8632 4.17111 23.5502 4.93325 22.9243 5.56532C22.2984 6.19791 21.5358 6.51368 20.6355 6.51368C19.7351 6.51368 18.9548 6.19896 18.3278 5.56952C17.7009 4.94007 17.3874 4.17845 17.3874 3.28464C17.3874 2.68877 17.5304 2.13643 17.8158 1.62763C18.1017 1.11884 18.4911 0.720714 18.9844 0.43222C19.4777 0.14425 20.0116 0 20.5855 0V0.00105009ZM20.6126 0.60374C20.1577 0.60374 19.7268 0.723336 19.3197 0.962524C18.9121 1.20171 18.5945 1.52378 18.3658 1.92872C18.1371 2.33366 18.0227 2.78528 18.0227 3.28307C18.0227 4.02004 18.2759 4.64214 18.7822 5.14989C19.2885 5.65764 19.8988 5.91151 20.6131 5.91151C21.0903 5.91151 21.5317 5.79454 21.9377 5.56112C22.3437 5.3277 22.6603 5.00826 22.8874 4.60332C23.1146 4.19838 23.2285 3.74833 23.2285 3.25317C23.2285 2.75801 23.1146 2.31583 22.8874 1.9177C22.6603 1.51958 22.34 1.20119 21.9273 0.961999C21.5145 0.722811 21.0763 0.603215 20.6131 0.603215L20.6126 0.60374Z" fill="var(--fill-0, #009EE2)"/>
<path id="Vector_5" d="M25.613 0.156839H29.135V0.763726H26.227V2.70713H29.11V3.31402H26.227V5.751H29.11V6.35789H25.613V0.156314V0.156839Z" fill="var(--fill-0, #009EE2)"/>
<path id="Vector_6" d="M30.0749 5.20339L30.5973 4.8871C30.9649 5.57004 31.3896 5.91151 31.8715 5.91151C32.0773 5.91151 32.2713 5.86326 32.4522 5.76622C32.6331 5.66918 32.7708 5.53909 32.866 5.37648C32.9606 5.21335 33.0079 5.04078 33.0079 4.85772C33.0079 4.65001 32.9382 4.44596 32.7989 4.24664C32.6066 3.97126 32.2557 3.63975 31.7462 3.2516C31.2336 2.86082 30.915 2.57862 30.7897 2.40447C30.5724 2.1123 30.4637 1.79601 30.4637 1.45611C30.4637 1.1865 30.5277 0.940492 30.6561 0.718614C30.784 0.496735 30.9643 0.32154 31.1972 0.193554C31.4296 0.065567 31.6828 0.00157514 31.9557 0.00157514C32.2453 0.00157514 32.5161 0.0739618 32.7682 0.218733C33.0204 0.363505 33.287 0.629968 33.5683 1.0176L33.0671 1.40103C32.8358 1.09208 32.6388 0.888041 32.4761 0.789953C32.3134 0.69134 32.1356 0.642556 31.9432 0.642556C31.6953 0.642556 31.4925 0.718614 31.3355 0.870205C31.178 1.0218 31.0995 1.20905 31.0995 1.43093C31.0995 1.56574 31.1271 1.69635 31.1832 1.82276C31.2388 1.94917 31.3407 2.08713 31.4884 2.23609C31.5689 2.31477 31.8335 2.52144 32.2822 2.85557C32.814 3.25159 33.1789 3.60461 33.377 3.91356C33.5745 4.22251 33.6738 4.53304 33.6738 4.84513C33.6738 5.29466 33.5049 5.68544 33.1664 6.01694C32.828 6.34845 32.4163 6.5142 31.9318 6.5142C31.5585 6.5142 31.2201 6.41349 30.9165 6.21259C30.6129 6.0117 30.3327 5.67495 30.077 5.20286L30.0749 5.20339Z" fill="var(--fill-0, #009EE2)"/>
<path id="Vector_7" d="M41.2085 1.30767L40.724 1.68271C40.4568 1.33127 40.1355 1.06533 39.7613 0.883844C39.3864 0.702354 38.9752 0.612135 38.5266 0.612135C38.0364 0.612135 37.5826 0.730679 37.1646 0.968293C36.7466 1.20591 36.4228 1.52482 36.193 1.92557C35.9632 2.32631 35.8483 2.77637 35.8483 3.27677C35.8483 4.03263 36.1051 4.66364 36.6193 5.16982C37.1334 5.67547 37.7817 5.92882 38.564 5.92882C39.4249 5.92882 40.1449 5.58892 40.724 4.9086L41.2085 5.27945C40.9018 5.67285 40.5197 5.97708 40.0617 6.19214C39.6037 6.4072 39.0917 6.51473 38.5261 6.51473C37.451 6.51473 36.6026 6.15385 35.9814 5.43156C35.4605 4.82153 35.2001 4.08508 35.2001 3.22222C35.2001 2.31425 35.5156 1.55053 36.1462 0.93105C36.7773 0.311574 37.5675 0.00157514 38.5173 0.00157514C39.0912 0.00157514 39.6089 0.115923 40.0716 0.345145C40.5337 0.574367 40.9127 0.895382 41.208 1.30872L41.2085 1.30767Z" fill="var(--fill-0, #009EE2)"/>
<path id="Vector_8" d="M42.9755 0.156839H43.5894V3.90045C43.5894 4.34473 43.5977 4.62115 43.6144 4.73078C43.6451 4.97522 43.7163 5.17978 43.8275 5.34396C43.9388 5.50814 44.1103 5.6461 44.3417 5.7573C44.573 5.8685 44.8054 5.92358 45.0393 5.92358C45.2426 5.92358 45.4375 5.88004 45.6241 5.79297C45.8108 5.70589 45.9667 5.58525 46.092 5.43051C46.2173 5.27578 46.3093 5.08904 46.3675 4.86979C46.4091 4.71242 46.4304 4.38931 46.4304 3.89992V0.156314H47.0444V3.89992C47.0444 4.45383 46.9908 4.90126 46.8837 5.24273C46.7766 5.5842 46.5619 5.88161 46.2401 6.13444C45.9184 6.38726 45.529 6.51368 45.0726 6.51368C44.5766 6.51368 44.1519 6.39408 43.7984 6.15542C43.4449 5.91676 43.2079 5.60046 43.0883 5.20706C43.0129 4.96525 42.9755 4.52989 42.9755 3.89992V0.156314V0.156839Z" fill="var(--fill-0, #009EE2)"/>
<path id="Vector_9" d="M49.0749 0.156839H52.5969V0.763726H49.6888V2.70713H52.5719V3.31402H49.6888V5.751H52.5719V6.35789H49.0749V0.156314V0.156839Z" fill="var(--fill-0, #009EE2)"/>
<path id="Vector_10" d="M54.1715 0.156839H54.7854V5.7594H57.1502V6.35789H54.1715V0.156314V0.156839Z" fill="var(--fill-0, #009EE2)"/>
<path id="Vector_11" d="M61.1484 0.156839L64.0143 6.35842H63.351L62.3846 4.31797H59.737L58.7795 6.35842H58.0943L60.9982 0.156839H61.1484ZM61.0709 1.47447L60.0177 3.71896H62.119L61.0709 1.47447Z" fill="var(--fill-0, #009EE2)"/>
</g>
</svg>
