<svg preserveAspectRatio="none" width="100%" height="100%" overflow="visible" style="display: block;" viewBox="0 0 120.397 51.1473" fill="none" xmlns="http://www.w3.org/2000/svg">
<g id="Group">
<path id="Vector" d="M14.4451 42.1762C12.4785 41.3406 10.4199 41.1633 8.38154 40.846C6.89841 40.6152 5.40956 40.4447 3.9467 40.0219C3.42841 39.8725 3.15341 39.5824 3.02189 38.8496C2.46045 35.7129 2.17453 32.5027 1.49041 29.4022C1.37085 28.8593 1.71238 28.7801 1.8751 28.5115C2.07004 28.1884 2.37624 27.8464 2.20832 27.432C2.01702 26.96 1.69367 27.3586 1.43531 27.4347C0.954965 27.5758 0.478262 27.496 0 27.4404V34.4493C0.377411 35.5561 0.336343 36.762 0.467865 37.9212C0.919095 41.8987 1.59386 42.8282 4.69321 43.2846C7.88665 43.7545 11.091 43.8584 14.299 43.5222C14.666 43.4839 15.2082 43.518 15.2779 43.0522C15.3699 42.4369 14.7955 42.3247 14.4456 42.1762H14.4451Z" fill="var(--fill-0, #CDEBF9)"/>
<path id="Vector_2" d="M120.394 39.1905C120.394 38.2973 120.394 37.404 120.394 36.5107C120.011 35.6405 120.321 34.6549 120.116 33.7553C120.041 33.4233 120.228 32.8694 119.833 32.8127C119.454 32.7582 119.365 33.2953 119.253 33.664C118.819 35.085 118.721 36.5889 118.64 38.0895C118.588 39.0458 118.535 40.0125 118.589 40.964C118.639 41.8379 118.327 42.1746 117.741 42.386C116.118 42.9724 114.441 43.1392 112.79 43.5096C112.345 43.6092 111.907 43.7503 111.468 43.8893C111.29 43.946 111.08 44.0252 111.086 44.3231C111.092 44.6184 111.311 44.6814 111.483 44.7454C112.811 45.2384 114.174 45.2164 115.531 45.1084C116.539 45.0281 117.541 44.8477 118.516 44.459C119.307 44.1437 119.915 43.54 120.394 42.6939V40.0141C120.403 39.7392 120.198 39.4644 120.394 39.1895L120.394 39.1905Z" fill="var(--fill-0, #CDEBF9)"/>
<path id="Vector_3" d="M120.397 40.0151V39.1905C120.195 39.4654 120.406 39.7403 120.397 40.0151Z" fill="var(--fill-0, #CDEBF9)"/>
<path id="Vector_4" d="M28.3116 14.9948C28.3012 15.1186 28.2908 15.2429 28.2804 15.3667C28.9692 15.4664 29.6559 15.6054 30.3468 15.6594C36.5663 16.1477 42.7946 16.3848 49.0198 16.7022C59.7079 17.2466 70.396 17.7775 81.0847 18.312C81.6191 18.3387 82.154 18.3492 82.6889 18.3544C82.8953 18.3565 83.1604 18.4462 83.2633 18.1368C83.3891 17.7591 83.0991 17.6002 82.9312 17.4113C80.9287 15.1647 78.6814 13.3819 76.3431 11.7899C67.9813 6.09658 59.0919 3.27144 49.6083 3.97221C42.2129 4.51878 35.3072 7.23168 28.9541 12.1717C28.6806 12.3847 28.4124 12.6113 28.1551 12.8557C27.9601 13.0414 27.7662 13.2665 27.9035 13.6284C28.0495 14.0129 28.3214 13.899 28.5335 13.7936C28.9302 13.5964 29.3107 13.3451 29.6928 13.1028C34.3766 10.1324 39.243 7.88839 44.4176 6.78005C52.5334 5.04122 60.431 6.16058 68.1627 9.61831C71.6697 11.1867 75.0014 13.2339 78.1485 15.8461C61.5315 15.3079 44.927 14.4828 28.311 14.9937L28.3116 14.9948Z" fill="var(--fill-0, #CDEBF9)"/>
<path id="Vector_5" d="M41.2901 3.42145C50.3704 1.63803 59.382 1.74766 68.2605 5.16658C72.8596 6.93741 77.1312 9.61254 81.1891 12.882C81.8088 13.3813 82.4482 13.8392 83.123 14.2358C82.8943 13.4034 82.3749 12.9266 81.9013 12.4178C78.3014 8.55088 74.2278 5.75406 69.8247 3.73775C62.749 0.497694 55.441 -0.4685 47.9801 0.199758C37.6132 1.12871 27.7881 4.63365 18.4724 10.5221C17.3853 11.2092 16.2999 11.9168 15.4162 13.053C17.1639 12.5237 18.7848 11.5811 20.4436 10.7749C27.2131 7.48398 34.1204 4.8293 41.2901 3.42145Z" fill="var(--fill-0, #CDEBF9)"/>
<path id="Vector_6" d="M55.3625 42.6766C49.8515 42.6845 44.3411 42.7621 38.8432 43.3134C38.0322 43.3947 37.2005 43.4199 36.3297 43.9822C37.1397 44.6725 37.9709 44.6552 38.7579 44.7459C44.9712 45.4635 51.2047 45.4955 57.4362 45.6261C65.1409 45.7876 72.8445 45.7242 80.5471 45.4829C83.3777 45.3942 86.2166 45.3591 89.0243 44.77C89.3352 44.705 89.6372 44.6247 89.9964 44.2754C88.9916 43.6475 88.008 43.6129 87.0473 43.5248C76.4975 42.5544 65.9289 42.6614 55.363 42.6771L55.3625 42.6766Z" fill="var(--fill-0, #CDEBF9)"/>
<path id="Vector_7" d="M85.7909 15.4768C90.2226 16.3838 94.6995 16.8155 99.1479 17.5509C103.408 18.2553 107.672 18.9419 111.78 20.6551C114.436 21.7629 116.781 23.4246 118.103 26.8094C118.171 26.9851 118.245 27.1808 118.477 27.2243C118.724 26.6211 118.515 26.0315 118.38 25.4755C117.861 23.3391 116.715 21.8353 115.293 20.6503C112.952 18.6991 110.322 17.6746 107.627 16.9707C100.349 15.0698 92.9851 14.3092 85.5626 14.4404C85.2705 14.4456 84.9768 14.4912 84.6872 14.5463C84.5422 14.5741 84.4044 14.667 84.184 14.7661C84.6903 15.3646 85.2658 15.3698 85.7909 15.4774V15.4768Z" fill="var(--fill-0, #CDEBF9)"/>
<path id="Vector_8" d="M2.18285 26.1947C2.71258 26.3531 2.96107 25.4871 3.06348 24.9395C3.37902 23.2567 4.20403 22.8361 5.39812 23.1702C7.12091 23.6517 8.18348 22.8256 8.76363 20.6634C9.08646 19.4602 9.66609 18.3707 10.1511 17.1779C9.21018 17.1779 8.36023 17.1417 7.51287 17.1884C6.69307 17.2335 5.87639 17.3631 5.05398 17.4564C5.29883 15.5482 5.98711 14.839 7.72393 14.6832C9.34795 14.5374 10.9714 14.3622 12.5518 13.8324C12.9869 13.6866 13.684 13.6656 13.6455 12.9155C13.6133 12.2819 12.9432 12.2709 12.5196 12.2011C10.5062 11.8701 8.48291 11.599 6.4555 11.9551C4.58248 12.2845 3.29221 13.6032 2.85242 15.9977C2.33828 18.7951 1.89953 21.6207 1.78672 24.5036C1.76281 25.1126 1.59594 26.0195 2.18233 26.1947H2.18285ZM4.47955 19.9868C4.48683 19.9543 4.48839 19.9191 4.49567 19.8861C4.74485 18.7608 5.31668 18.2455 6.21117 18.3403C6.58234 18.3786 6.95612 18.3854 7.32833 18.4079C8.32072 18.4683 8.32904 18.4746 7.8305 19.5918C7.30805 20.7631 7.00758 22.3661 5.67053 21.6837C4.61939 21.7033 4.2224 21.1376 4.47955 19.9868Z" fill="var(--fill-0, #CDEBF9)"/>
<path id="Vector_9" d="M111.908 29.9351C111.417 29.9556 110.557 29.8863 110.562 30.3631C110.57 31.0681 111.389 30.9847 111.876 31.1117C112.923 31.3849 113.994 31.4143 115.502 31.4201C116.233 31.3944 117.41 31.4101 118.548 30.9664C118.801 30.8678 119.057 30.7655 119.295 30.6181C119.551 30.4591 119.945 30.2661 119.868 29.8842C119.77 29.4074 119.359 29.6917 119.105 29.7243C116.709 30.0322 114.307 29.8339 111.909 29.9351H111.908Z" fill="var(--fill-0, #CDEBF9)"/>
<path id="Vector_10" d="M5.67052 21.6837C7.00758 22.3661 7.30805 20.7631 7.8305 19.5918C8.32904 18.474 8.32072 18.4677 7.32833 18.4079C6.95611 18.3854 6.58234 18.3786 6.21117 18.3403C5.31668 18.2483 4.74485 18.7636 4.49566 19.8861C4.48839 19.9186 4.48683 19.9538 4.47955 19.9868C4.2224 21.1376 4.61939 21.7033 5.67052 21.6837Z" fill="var(--fill-0, #CDEBF9)"/>
<g id="Group_2">
<path id="Vector_11" d="M99.8856 49.1578C98.037 49.0618 96.4161 48.1916 94.8908 46.9227C94.62 46.6972 94.3845 46.2907 93.9468 46.4402C94.0232 47.1042 94.3554 47.548 94.6772 47.9812C95.8349 49.5428 97.2582 50.4927 98.8937 50.9354C99.0164 50.9685 99.1676 50.9144 99.2051 51.1473H102.736C102.891 50.7969 103.19 50.8415 103.429 50.7539C106.534 49.6183 109.1 46.3877 109.92 42.096H107.869C106.81 46.4706 103.57 49.3492 99.885 49.1578H99.8856Z" fill="var(--fill-0, #CDEBF9)"/>
<path id="Vector_12" d="M24.4636 49.1578C22.7071 49.0576 21.1433 48.2813 19.6805 47.0748C19.3561 46.8073 19.0749 46.3924 18.5784 46.3872C18.555 47.014 18.8742 47.4027 19.1393 47.784C20.3355 49.504 21.8379 50.5362 23.6007 50.9506C23.7239 50.9795 23.8736 50.916 23.9183 51.1468H27.2895C27.4788 50.7964 27.8 50.8405 28.0651 50.7434C31.2638 49.5753 33.7669 46.0787 34.556 42.0954H32.4485C31.3891 46.4994 28.1488 49.3681 24.4631 49.1578H24.4636Z" fill="var(--fill-0, #CDEBF9)"/>
<path id="Vector_13" d="M23.8117 45.0276C25.6167 45.5983 27.5297 44.6389 28.3417 42.6882C27.8848 42.7485 27.6202 43.1581 27.2921 43.3842C25.8979 44.3446 24.4865 44.4653 23.1006 43.4277C22.6109 43.0611 22.2132 42.6147 21.9106 42.0954H20.7628C21.3726 43.5227 22.4492 44.5969 23.8112 45.0276H23.8117Z" fill="var(--fill-0, #CDEBF9)"/>
<path id="Vector_14" d="M99.3392 45.0082C101.197 45.6135 103.21 44.6116 103.915 42.6168C100.97 44.6237 99.126 44.5193 97.6881 42.3425C97.6346 42.2617 97.5847 42.1788 97.5363 42.0954H96.3719C96.9666 43.5148 98.0047 44.5733 99.3392 45.0082Z" fill="var(--fill-0, #CDEBF9)"/>
</g>
</g>
</svg>
